PathFileType	4	(X/Y/Z)	rand1.trc
DataRate	CameraRate	NumFrames	NumMarkers	Units	OrigDataRate	OrigDataStartFrame	OrigNumFrames
100.0	100.0	9	17	mm	100.0	1	1373
Frame#	Time	STER			XIPH			T10			T1			CLAV_SC			CLAV_AC			SCAP_AA			SCAP_CP			SCAP_TS			SCAP_IA			DELT			ARMl			EPICm			EPICl			LARM_elb			STYLr			STYLu		
		X1	Y1	Z1	X2	Y2	Z2	X3	Y3	Z3	X4	Y4	Z4	X5	Y5	Z5	X6	Y6	Z6	X7	Y7	Z7	X8	Y8	Z8	X9	Y9	Z9	X10	Y10	Z10	X11	Y11	Z11	X12	Y12	Z12	X13	Y13	Z13	X14	Y14	Z14	X15	Y15	Z15	X16	Y16	Z16	X17	Y17	Z17

1	0.0	393.0605163574219	95.66824340820312	1435.9940185546875	389.9861755371094	144.7593536376953	1271.39697265625	380.3157653808594	-91.22024536132812	1239.817626953125	364.9137878417969	-61.34412384033203	1475.208984375	427.416748046875	85.69234466552734	1440.3541259765625	573.1441650390625	8.547159194946289	1462.67138671875	576.2883911132812	-38.01394271850586	1447.4521484375	518.3777465820312	-42.623748779296875	1476.0009765625	500.9344177246094	-99.01853942871094	1423.365478515625	485.703125	-112.31329345703125	1282.7744140625	645.5974731445312	-21.569944381713867	1314.0849609375	661.4523315429688	-35.93498992919922	1267.6241455078125	645.4348754882812	2.0649383068084717	1105.1458740234375	718.0328369140625	-46.141868591308594	1160.760498046875	664.03369140625	-41.38721466064453	1099.5675048828125	883.4393310546875	74.416748046875	966.3350830078125	818.537353515625	45.608924865722656	924.053955078125
2	0.01	393.0802307128906	95.67222595214844	1435.9422607421875	390.8620300292969	144.73570251464844	1271.681640625	380.3436279296875	-91.23574829101562	1239.82470703125	364.97100830078125	-61.34004211425781	1475.2222900390625	nan	nan	nan	573.2321166992188	8.527271270751953	1462.6632080078125	576.3534545898438	-38.02505874633789	1447.43017578125	518.4288940429688	-42.63816452026367	1475.976806640625	500.9927673339844	-99.03134155273438	1423.3538818359375	485.7060852050781	-112.33032989501953	1282.7650146484375	644.1063842773438	-21.7425537109375	1314.0406494140625	661.4305419921875	-35.97337341308594	1267.56689453125	645.3882446289062	2.0031216144561768	1105.09326171875	718.0185546875	-46.224876403808594	1160.7027587890625	664.0481567382812	-41.465816497802734	1099.53271484375	883.4122314453125	74.27167510986328	966.1892700195312	818.4962768554688	45.4420166015625	923.9400024414062
3	0.02	393.08636474609375	95.65852355957031	1435.9417724609375	391.1809997558594	144.7303466796875	1271.6611328125	380.3943786621094	-91.24214935302734	1239.8441162109375	365.013671875	-61.31350326538086	1475.2501220703125	427.62353515625	85.69548797607422	1440.3497314453125	573.340576171875	8.515049934387207	1462.6212158203125	576.3844604492188	-38.0684928894043	1447.4024658203125	518.5217895507812	-42.64834213256836	1475.9774169921875	501.0593566894531	-99.0575180053711	1423.3499755859375	485.7774658203125	-112.3709487915039	1282.793212890625	645.6770629882812	-21.663150787353516	1314.0115966796875	661.4411010742188	-36.03601837158203	1267.529296875	645.3248291015625	1.9107036590576172	1105.091064453125	718.030029296875	-46.294429779052734	1160.6495361328125	664.0078125	-41.531063079833984	1099.4815673828125	883.369140625	74.12958526611328	966.0841674804688	818.6149291992188	45.755088806152344	923.9595947265625
4	0.03	393.10443115234375	95.65462493896484	1435.854736328125	390.86480712890625	144.7157440185547	1271.7611083984375	380.3894958496094	-91.2437744140625	1239.8612060546875	365.091552734375	-61.320068359375	1475.2454833984375	427.68841552734375	85.67230224609375	1440.3056640625	573.3941650390625	8.485528945922852	1462.6099853515625	576.4361572265625	-38.087276458740234	1447.392333984375	518.6062622070312	-42.667850494384766	1475.962646484375	501.0994567871094	-99.08373260498047	1423.3468017578125	485.7925720214844	-112.3968734741211	1282.786376953125	644.1836547851562	-21.83771514892578	1313.9794921875	661.5592651367188	-36.10145568847656	1267.6053466796875	645.4207763671875	1.9423052072525024	1105.02099609375	718.0219116210938	-46.35906219482422	1160.5946044921875	664.0097045898438	-41.56954574584961	1099.4307861328125	883.350830078125	74.00689697265625	965.9716186523438	818.5643920898438	45.650054931640625	923.8606567382812
5	0.04	393.1274108886719	95.61878204345703	1435.892822265625	390.2926025390625	144.72215270996094	1271.3970947265625	380.39251708984375	-91.2438735961914	1239.878173828125	365.14984130859375	-61.31705093383789	1475.272705078125	427.2835693359375	85.46819305419922	1440.754150390625	573.467529296875	8.447922706604004	1462.5823974609375	576.4744262695312	-38.127689361572266	1447.3408203125	518.6146240234375	-42.715702056884766	1475.958740234375	501.17236328125	-99.09559631347656	1423.3492431640625	485.8799743652344	-112.41828918457031	1282.7650146484375	644.2064819335938	-21.883634567260742	1313.8331298828125	661.513916015625	-36.13422393798828	1267.439453125	645.356201171875	1.8566863536834717	1104.882568359375	718.0213012695312	-46.42301559448242	1160.5186767578125	663.9852905273438	-41.631065368652344	1099.392578125	883.3416137695312	73.90813446044922	965.88671875	818.3600463867188	45.14425277709961	923.6492309570312
6	0.05	393.37738037109375	95.59259033203125	1435.8970947265625	391.0759582519531	144.71319580078125	1271.641357421875	380.42230224609375	-91.2611083984375	1239.9150390625	365.21380615234375	-61.295772552490234	1475.2921142578125	427.37200927734375	85.46823120117188	1440.7286376953125	573.5361328125	8.414406776428223	1462.565673828125	576.5454711914062	-38.153564453125	1447.3251953125	518.7048950195312	-42.72233581542969	1475.9146728515625	501.17578125	-99.12106323242188	1423.318115234375	485.9194641113281	-112.44766998291016	1282.792236328125	644.2913818359375	-21.912853240966797	1313.7794189453125	661.556884765625	-36.190956115722656	1267.3978271484375	645.3230590820312	1.8155384063720703	1104.8765869140625	718.0357055664062	-46.484310150146484	1160.47216796875	664.0029296875	-41.66566848754883	1099.354736328125	883.3080444335938	73.78919982910156	965.796630859375	818.4885864257812	45.49839401245117	923.6544189453125
7	0.06	393.3222961425781	95.52288055419922	1435.9508056640625	390.99725341796875	144.6842041015625	1271.7186279296875	380.4468688964844	-91.28269958496094	1239.916259765625	365.2868347167969	-61.31297302246094	1475.3115234375	427.48419189453125	85.4583740234375	1440.729248046875	573.6071166992188	8.380127906799316	1462.523193359375	576.6415405273438	-38.196434020996094	1447.30224609375	518.7499389648438	-42.755340576171875	1475.911376953125	501.2725524902344	-99.13241577148438	1423.3074951171875	485.9634094238281	-112.47093200683594	1282.7882080078125	644.3941040039062	-21.97724151611328	1313.7569580078125	661.6487426757812	-36.23088455200195	1267.37646484375	645.232177734375	1.7326278686523438	1104.771728515625	718.0482788085938	-46.551639556884766	1160.4195556640625	663.9749145507812	-41.72425842285156	1099.285888671875	883.2725830078125	73.68743896484375	965.6930541992188	818.6207885742188	45.139671325683594	923.3496704101562
8	0.07	393.52044677734375	95.50170135498047	1435.82861328125	391.09149169921875	144.6686248779297	1271.652099609375	380.4791259765625	-91.26195526123047	1239.933837890625	365.31866455078125	-61.315269470214844	1475.332275390625	427.6137390136719	85.45625305175781	1440.7169189453125	573.6856079101562	8.350301742553711	1462.4935302734375	576.7208862304688	-38.234737396240234	1447.2781982421875	518.8124389648438	-42.79365158081055	1475.880126953125	501.3169860839844	-99.1711654663086	1423.278076171875	485.87310791015625	-112.48856353759766	1282.761474609375	644.51953125	-22.022768020629883	1313.7965087890625	661.6100463867188	-36.28117370605469	1267.3017578125	645.375	1.7595592737197876	1104.7628173828125	718.0423583984375	-46.60426330566406	1160.3419189453125	663.971435546875	-41.77251052856445	1099.247802734375	883.2732543945312	73.62471771240234	965.5444946289062	818.2837524414062	44.99800491333008	923.355224609375
9	0.08	393.6026306152344	95.44300842285156	1435.77734375	391.0776672363281	144.66949462890625	1271.622314453125	380.5030822753906	-91.28486633300781	1239.9462890625	365.40338134765625	-61.30956268310547	1475.3447265625	428.05328369140625	85.57655334472656	1440.36376953125	573.7665405273438	8.294846534729004	1462.47412109375	576.8129272460938	-38.284664154052734	1447.2435302734375	518.8619384765625	-42.83098220825195	1475.8643798828125	501.37200927734375	-99.19981384277344	1423.31201171875	485.8734130859375	-112.52803039550781	1282.7652587890625	644.5026245117188	-22.057723999023438	1313.64892578125	661.6668701171875	-36.32813262939453	1267.265625	645.4376220703125	1.785753846168518	1104.763671875	718.0404052734375	-46.644554138183594	1160.287353515625	663.9391479492188	-41.79456329345703	1099.189697265625	883.2598876953125	73.54888916015625	965.4771728515625	818.3549194335938	45.31767654418945	923.3800659179688
